<?xml version="1.0" encoding="UTF-8"?>
<svg id="Camada_2" data-name="Camada 2" xmlns="http://www.w3.org/2000/svg" viewBox="0 0 735.86 588.08">
  <defs>
    <style>
      .cls-1 {
        fill: #fff;
      }

      .cls-2 {
        fill: #4418ba;
      }

      .cls-3 {
        fill: #6c6c6f;
      }

      .cls-4 {
        fill: #1c1c1c;
        stroke: #fff;
        stroke-miterlimit: 10;
        stroke-width: 7px;
      }
    </style>
  </defs>
  <g id="Camada_1-2" data-name="Camada 1">
    <g>
      <rect class="cls-4" x="3.5" y="3.5" width="662.69" height="536.84" rx="48.03" ry="48.03"/>
      <path class="cls-1" d="M614.49,191.36c-.14,0-.25-.12-.25-.27,0-70.22-.02-108-.07-113.35-.03-2.81-1.04-5.91-3.04-9.3-2.71-4.61-6.57-7.75-11.58-9.43-2.22-.75-6.64-1.07-13.27-.97-2.93.05-171.11.05-504.54.01-6.6,0-10.95.34-13.03,1.01-6.85,2.21-12.68,8.15-14.54,15.33-.44,1.68-.66,4.2-.66,7.56-.02,87.67,0,138,.03,150.99,0,3.07-.15,5.86-1.57,8.41-2.72,4.88-6.92,7.29-12.62,7.24-3.7-.03-6.75-1.32-9.15-3.86-3.06-3.24-3.7-6-3.7-10.8.04-86.96.02-135.61-.07-145.97-.08-8.96.27-15.24,1.05-18.83,3.99-18.71,18.9-33.9,37.73-37.78,3.44-.71,9.54-1.07,18.31-1.07,286.19.03,453.36.02,501.51-.01,8.79,0,14.81.33,18.05,1.01,10.71,2.27,19.76,7.74,27.16,16.4,7.72,9.05,11.6,19.68,11.63,31.87.06,25.89.07,49.66.02,71.3-.01,7.2-1.34,15.88-6.33,20.93-.58.59-5.32,4.91-14.24,12.96-2.43,2.19-4.56,4.33-6.41,6.42-.12.14-.25.2-.4.18h0Z"/>
      <path class="cls-1" d="M61.75,512.51c-18.68-4.23-32.65-19.82-34.86-38.71-.53-4.52-.64-8.59-.33-12.18.69-7.96,8.24-13.83,16.05-11.93,5.32,1.3,8.75,4.44,10.3,9.41.74,2.37.51,5.14.64,7.5.31,5.71,2.44,10.24,6.99,14.22,2.03,1.77,4.21,3,6.53,3.7,1.28.38,3.75.57,7.42.58,100.22.03,195.87.03,286.95-.03,4.56,0,7.41.23,8.54.71,2.61,1.1,4.62,3.08,6.06,5.92,1.68,3.32,1.68,6.52.18,10.01-1.55,3.6-3.22,6.42-5,8.47-3.33,3.81-7.1,3.34-13.05,3.33-177.15-.03-270.98-.03-281.48.03-6.72.03-11.71-.31-14.94-1.05h0Z"/>
      <path class="cls-2" d="M340.76,303.34c-.16-.19-.45-.19-.62,0-8.72,10.26-18.12,20.39-28.21,30.42-6.54,6.5-13.16,12.14-19.84,16.9-13.32,9.51-27.84,15.11-43.55,16.78-5.01.54-10.8.65-17.36.33-19.46-.94-38.06-8.62-52.66-21.3-25.03-21.71-35.28-55.94-28.66-88.1,3.19-15.5,10.02-29.29,20.48-41.38,10.83-12.51,24.44-21.31,40.84-26.42,6.91-2.15,14.61-3.36,23.09-3.63,8.19-.25,15.95.35,23.29,1.82,24.81,4.96,45.18,21.58,62.58,39.5,7.42,7.63,14.14,14.97,20.17,22.01.21.24.57.24.78,0,12.91-15.18,26.84-28.92,41.79-41.21,9.04-7.43,18.52-13.14,28.42-17.11,16.18-6.5,33.18-7.61,50.32-4.77,16.87,2.79,32.22,11.04,44.4,23.02,23.23,22.82,31.7,58.66,23.58,89.94-.04.16-.12.31-.23.44l-49.54,58.86c-.26.31-.59.55-.96.7-14.29,6.05-29.29,7.99-44.87,6.65-12.97-1.12-24.8-4.6-35.49-10.47-8.37-4.6-16.55-10.62-24.53-18.06-11.38-10.61-22.46-22.25-33.23-34.92M362.89,276.44c10.71,12.96,21.74,24.68,33.09,35.17,3.56,3.3,8.25,6.88,14.05,10.73,18.55,12.34,41.77,13.37,60.77,2.31,6.1-3.54,11.25-8,15.47-13.37,19.05-24.22,14.44-61.01-10.67-79.54-13.01-9.59-27.52-12.84-43.54-9.74-13.72,2.66-25.76,10.71-36.1,19.82-11.99,10.56-22.7,22.2-33.08,34.35-.07.08-.07.2,0,.27M318.4,276.98c-11.01-12.83-22.32-24.4-33.93-34.73-3.65-3.25-8.43-6.75-14.33-10.52-18.88-12.05-42.24-12.65-61.14-1.18-6.05,3.67-11.16,8.25-15.3,13.73-18.69,24.72-13.37,61.61,12.22,79.77,13.25,9.4,27.91,12.39,43.96,8.97,13.74-2.93,25.69-11.25,35.92-20.61,11.86-10.84,22.41-22.74,32.61-35.15.07-.08.06-.2,0-.28h0Z"/>
      <g>
        <path class="cls-1" d="M688.23,265.86c-12.66-11.14-21.33-18.68-25.98-22.62-10.72-9.07-17.75-15.06-21.07-17.98-1.42-1.23-3.58-2.76-6.5-4.59,11.62-14.02,23.16-28.06,34.62-42.1,3.64-4.45,6.53-7.48,8.69-9.1,10-7.48,23.11-10.12,34.79-5.75,16.41,6.15,26.29,23.69,22.12,40.77-1.08,4.42-2.82,8.52-5.24,12.28-.63.98-3.47,4.42-8.52,10.33-11.06,12.93-22.03,25.84-32.91,38.75h0Z"/>
        <path class="cls-1" d="M621.59,236.14c2.17,2.51,4.3,4.65,6.38,6.4,7.93,6.66,14,11.84,18.22,15.56,3.21,2.82,5.55,4.82,7.03,5.98,3.25,2.55,6.17,5.35,9.35,7.96,3.97,3.26,7.98,6.58,12.03,9.97-45.31,53.67-90.64,107.31-136.01,160.95-42.97,50.79-66.05,78.07-69.23,81.83-7.21,8.52-14.8,15.2-24.82,22.52-14.55,10.61-31.21,22.97-49.99,37.08-1.73,1.31-4.17,3.01-6.41,3.43-8.12,1.55-15.32-3.89-14.91-12.4.05-1.23.62-3.18,1.68-5.85,3.95-9.89,12.86-31.79,26.74-65.7,1.69-4.12,3.72-8.08,6.1-11.87,1.48-2.35,4.18-5.87,8.14-10.56,47.04-55.78,95.49-113.6,145.36-173.44,6.88-8.25,16.94-20.24,30.18-35.94,10.07-11.95,20.13-23.93,30.17-35.92h0Z"/>
        <path class="cls-2" d="M634.69,220.67c2.92,1.83,5.08,3.36,6.5,4.59,3.33,2.92,10.35,8.9,21.07,17.98,4.65,3.94,13.31,11.48,25.98,22.62l-13.63,16.14c-4.05-3.4-8.06-6.71-12.03-9.97-3.18-2.61-6.1-5.41-9.35-7.96-1.48-1.16-3.82-3.16-7.03-5.98-4.22-3.71-10.29-8.9-18.22-15.56-2.08-1.75-4.21-3.88-6.38-6.4l13.1-15.47h0Z"/>
      </g>
      <g>
        <path class="cls-1" d="M149.71,426.1c-6.92,2.12-11.27,5.54-16.76,11.53-3.22,3.52-6.37,6.88-9.47,10.09-2.14,2.22-4.26,4.01-6.36,5.38-4.43,2.89-12.38,5.77-14.5-1.31-.93-3.11-1.01-6.7-.23-10.76,2.26-11.86,7.78-22.04,16.55-30.53,5.99-5.79,12.98-9.4,20.98-10.8,6.27-1.1,12.95,3.6,16.28,8.98,1.46,2.35,3.99,7.71,3.98,10.98-.02,6.22-6.38,5.2-10.47,6.44h0Z"/>
        <path class="cls-2" d="M137.54,460.59c-7.01.25-2.4-6.98-.72-9.99.95-1.7,2.18-3.56,3.68-5.6,2.71-3.65,5.45-8,8.22-13.06.6-1.1,1.25-1.66,2.58-1.82,2.69-.31,4.37-.59,5.06-.82,6.52-2.24,9.06-6.81,7.62-13.72-1.45-6.9-5.58-12.03-10.71-16.41-1.91-1.62-4.91-2.74-8.99-3.34-.18-.02-.36-.09-.51-.18-.32-.21-.89-.73-1.7-1.57-2.75-2.86-7.09-5.11-11.06-7.45-2.08-1.22-3.84-2.18-5.29-2.87-5.04-2.41-10.54-4.9-16.53-7.46-2.89-1.24-3.3-4.06-.32-5.47,1.76-.84,4.05-1.52,6.88-2.04,12.36-2.28,26.06.21,37.99,5.19,12.11,5.06,21.43,13.59,26.17,25.52,5.04,12.7,2.7,27.48-4.99,38.63-7.03,10.21-16.47,17.19-28.3,20.9-2.91.92-5.94,1.43-9.07,1.55h0Z"/>
      </g>
      <path class="cls-3" d="M114.36,119.04c-.17,0-.31.14-.31.31.02,20.74.02,36.28,0,46.63,0,5.3-3.75,9.93-8.96,11.23-7.37,1.84-14.85-3.2-14.92-11.14-.02-2.31-.05-17.26-.08-44.84,0-4.58.33-7.94.99-10.08,1.9-6.11,5.79-10.69,11.68-13.72,5.29-2.73,10.39-2.57,17.36-2.54,14.22.05,28.6.05,43.11,0,6.83-.03,12.38,5.04,12.39,12,0,7.03-5.32,12.13-12.31,12.12-20.49-.02-36.81,0-48.96.05h0Z"/>
      <path class="cls-3" d="M52.74,292.96c0,7.24-5.86,13.1-13.1,13.1s-13.1-5.86-13.1-13.1,5.86-13.1,13.1-13.1,13.1,5.86,13.1,13.1h0Z"/>
      <path class="cls-3" d="M52.81,350.58c0,7.26-5.88,13.14-13.14,13.14s-13.14-5.88-13.14-13.14,5.88-13.14,13.14-13.14,13.14,5.88,13.14,13.14h0Z"/>
      <path class="cls-3" d="M616.09,451.31s0-17.42-.04-52.12c0-4.23.31-7.14.94-8.74,2.49-6.25,9.3-9,15.7-7.02,3.95,1.23,6.85,4.58,7.99,8.39.34,1.11.5,3.08.49,5.91-.08,24.96-.08,41.38,0,49.28.06,5.6-.29,9.61-1.07,12.02-1.51,4.74-4.22,8.67-8.11,11.79-7.46,5.98-14.37,5.63-25.22,5.59-12.94-.05-25.22-.05-36.86.01-3.69.02-6.25-.23-7.68-.74-5.7-2.05-8.33-7.68-7.58-13.68.8-6.42,6.47-10.46,12.8-10.42,10.53.06,26.64.06,48.35,0,.15,0,.27-.12.28-.27h0Z"/>
      <path class="cls-3" d="M52.78,407.95c0,7.24-5.87,13.11-13.11,13.11s-13.11-5.87-13.11-13.11,5.87-13.11,13.11-13.11,13.11,5.87,13.11,13.11h0Z"/>
    </g>
  </g>
</svg>